<svg xmlns="http://www.w3.org/2000/svg" viewBox="0 0 112.68 33.38"><defs><style>.cls-1{fill:#fff;}.cls-2{fill:#ee4c4a;}.cls-3{fill:#636161;}</style></defs><title>critical-button</title><g id="Layer_2" data-name="Layer 2"><g id="Layer_1-2" data-name="Layer 1"><g id="critical-butoon"><rect class="cls-1" width="112.68" height="33.38"/><circle class="cls-2" cx="20.6" cy="16.69" r="9.96"/><path class="cls-3" d="M51,20.12a.31.31,0,0,1,.23.1l.65.71a4.14,4.14,0,0,1-1.51,1.14,5.2,5.2,0,0,1-2.14.4,5,5,0,0,1-2-.38A4.39,4.39,0,0,1,44.73,21a4.73,4.73,0,0,1-1-1.63,6.11,6.11,0,0,1-.34-2.08,5.82,5.82,0,0,1,.36-2.08,4.77,4.77,0,0,1,1-1.63,4.56,4.56,0,0,1,1.57-1.06,5.21,5.21,0,0,1,2-.38,4.92,4.92,0,0,1,1.93.35,4.77,4.77,0,0,1,1.45.94l-.54.76a.61.61,0,0,1-.13.13.35.35,0,0,1-.21.06.57.57,0,0,1-.32-.13,5.1,5.1,0,0,0-.46-.29,3.52,3.52,0,0,0-.69-.29,3.55,3.55,0,0,0-1-.13,3.39,3.39,0,0,0-1.32.25,2.86,2.86,0,0,0-1,.73,3.41,3.41,0,0,0-.68,1.18,4.77,4.77,0,0,0-.24,1.58,4.64,4.64,0,0,0,.25,1.59A3.44,3.44,0,0,0,46,20.09a3,3,0,0,0,1,.73,3.25,3.25,0,0,0,1.28.25,5.61,5.61,0,0,0,.75,0,3,3,0,0,0,.61-.15,2.84,2.84,0,0,0,.53-.26,3.36,3.36,0,0,0,.49-.38A.42.42,0,0,1,51,20.12Z"/><path class="cls-3" d="M61,22.37H59.54a.67.67,0,0,1-.63-.34l-2.35-3.4a.77.77,0,0,0-.26-.25.9.9,0,0,0-.42-.08H55v4.06H53.33V12.29h3a6.34,6.34,0,0,1,1.71.2,3.26,3.26,0,0,1,1.18.58,2.28,2.28,0,0,1,.68.9,3.17,3.17,0,0,1,.06,2.15,2.76,2.76,0,0,1-.46.83,2.93,2.93,0,0,1-.73.64,3.71,3.71,0,0,1-1,.43,1.63,1.63,0,0,1,.52.51Zm-4.75-5.25a3.17,3.17,0,0,0,1-.14,2,2,0,0,0,.7-.38,1.56,1.56,0,0,0,.42-.58,2,2,0,0,0,.14-.75A1.51,1.51,0,0,0,58,14a2.63,2.63,0,0,0-1.65-.43H55v3.55Z"/><path class="cls-3" d="M63.87,22.37H62.22V12.29h1.65Z"/><path class="cls-3" d="M73.2,13.65H70.05v8.71H68.42V13.65H65.27V12.29H73.2Z"/><path class="cls-3" d="M76.24,22.37H74.6V12.29h1.65Z"/><path class="cls-3" d="M85.63,20.12a.31.31,0,0,1,.23.1l.65.71A4.14,4.14,0,0,1,85,22.08a5.2,5.2,0,0,1-2.14.4,5,5,0,0,1-2-.38A4.39,4.39,0,0,1,79.34,21a4.73,4.73,0,0,1-1-1.63A6.11,6.11,0,0,1,78,17.33a5.82,5.82,0,0,1,.36-2.08,4.77,4.77,0,0,1,1-1.63A4.56,4.56,0,0,1,81,12.56a5.21,5.21,0,0,1,2-.38,4.92,4.92,0,0,1,1.93.35,4.77,4.77,0,0,1,1.45.94l-.54.76a.61.61,0,0,1-.13.13.35.35,0,0,1-.21.06.57.57,0,0,1-.32-.13,5.1,5.1,0,0,0-.46-.29,3.52,3.52,0,0,0-.69-.29,3.55,3.55,0,0,0-1-.13,3.39,3.39,0,0,0-1.32.25,2.86,2.86,0,0,0-1,.73,3.41,3.41,0,0,0-.68,1.18,4.77,4.77,0,0,0-.24,1.58A4.64,4.64,0,0,0,80,18.92a3.44,3.44,0,0,0,.69,1.18,3,3,0,0,0,1,.73,3.25,3.25,0,0,0,1.28.25,5.61,5.61,0,0,0,.75,0,3,3,0,0,0,.61-.15,2.84,2.84,0,0,0,.53-.26,3.36,3.36,0,0,0,.49-.38A.42.42,0,0,1,85.63,20.12Z"/><path class="cls-3" d="M96.37,22.37H95.11a.54.54,0,0,1-.35-.11.7.7,0,0,1-.2-.27l-.84-2.23H89.37L88.53,22a.67.67,0,0,1-.2.26.52.52,0,0,1-.35.12H86.72l4-10.08h1.66Zm-3.1-3.78-1.39-3.68a10.26,10.26,0,0,1-.34-1.08q-.08.33-.17.61l-.17.49-1.39,3.68Z"/><path class="cls-3" d="M103.37,21v1.37H97.55V12.29h1.64V21Z"/></g></g></g></svg>