<svg xmlns="http://www.w3.org/2000/svg" viewBox="0 0 112.68 33.38"><defs><style>.cls-1{fill:#fff;}.cls-2{fill:#ffa324;}.cls-3{fill:#636161;}</style></defs><title>high-button</title><g id="Layer_2" data-name="Layer 2"><g id="Layer_1-2" data-name="Layer 1"><g id="high-button"><rect class="cls-1" width="112.68" height="33.38"/><circle class="cls-2" cx="32.84" cy="16.69" r="9.96"/><path class="cls-3" d="M65.24,12V22.05H63.6V17.57H58.54v4.49H56.89V12h1.65v4.41H63.6V12Z"/><path class="cls-3" d="M69.28,22.05H67.64V12h1.64Z"/><path class="cls-3" d="M79.93,17.09v4a5.83,5.83,0,0,1-3.5,1.08,6.13,6.13,0,0,1-2.22-.38,4.92,4.92,0,0,1-1.69-1.06,4.66,4.66,0,0,1-1.08-1.63A5.55,5.55,0,0,1,71.07,17a5.8,5.8,0,0,1,.36-2.09,4.56,4.56,0,0,1,2.68-2.69,5.89,5.89,0,0,1,2.16-.37A6.35,6.35,0,0,1,77.4,12a5.62,5.62,0,0,1,1,.26,4.57,4.57,0,0,1,.83.41,4.64,4.64,0,0,1,.69.53l-.47.75a.47.47,0,0,1-.29.22.49.49,0,0,1-.38-.08l-.43-.25a3.77,3.77,0,0,0-.52-.25,3.91,3.91,0,0,0-.68-.19,4.94,4.94,0,0,0-.91-.07,3.76,3.76,0,0,0-1.44.26,3.09,3.09,0,0,0-1.1.75,3.32,3.32,0,0,0-.7,1.18A4.62,4.62,0,0,0,72.73,17,4.69,4.69,0,0,0,73,18.63a3.35,3.35,0,0,0,.73,1.2,3.13,3.13,0,0,0,1.15.75,4.59,4.59,0,0,0,2.62.13,5.06,5.06,0,0,0,1-.37v-2H77a.35.35,0,0,1-.25-.09A.3.3,0,0,1,76.7,18v-.93Z"/><path class="cls-3" d="M90.21,12V22.05H88.58V17.57H83.51v4.49H81.87V12h1.65v4.41h5.06V12Z"/></g></g></g></svg>