<svg xmlns="http://www.w3.org/2000/svg" viewBox="0 0 269.46 269.46"><defs><style>.cls-1{fill:#2ba6a4;}.cls-2{fill:#01847f;}.cls-3{fill:#fff;}</style></defs><title>logo</title><g id="Layer_2" data-name="Layer 2"><g id="Layer_1-2" data-name="Layer 1"><g id="Logo"><circle class="cls-1" cx="134.73" cy="134.73" r="134.73"/><path class="cls-2" d="M100.31,195.51l69.28,69.28a134.64,134.64,0,0,0,99.88-130.06v-3.83l-54.4-50.15Z"/><path class="cls-3" d="M138.13,164.91a15.91,15.91,0,0,1,0,22.1l-12.33,12.33a15.91,15.91,0,0,1-22.1,0l-54-54.4a15.91,15.91,0,0,1,0-22.1l12.33-12.33a15.91,15.91,0,0,1,22.1,0Z"/><path class="cls-3" d="M185.31,71a15.91,15.91,0,0,1,22.1,0L219.74,83.3a15.91,15.91,0,0,1,0,22.1l-93.51,93.08a15.91,15.91,0,0,1-22.1,0L91.8,186.16a15.91,15.91,0,0,1,0-22.1Z"/></g></g></g></svg>