<svg xmlns="http://www.w3.org/2000/svg" viewBox="0 0 112.68 33.38"><defs><style>.cls-1{fill:#fff;}.cls-2{fill:#0088c6;}.cls-3{fill:#636161;}</style></defs><title>low-button</title><g id="Layer_2" data-name="Layer 2"><g id="Layer_1-2" data-name="Layer 1"><g id="low-button"><rect class="cls-1" width="112.68" height="33.38"/><circle class="cls-2" cx="33.16" cy="16.69" r="9.96"/><path class="cls-3" d="M61.82,21v1.37H56V12.29h1.64V21Z"/><path class="cls-3" d="M72.3,17.33a5.71,5.71,0,0,1-.36,2.06,4.76,4.76,0,0,1-1,1.63,4.69,4.69,0,0,1-1.59,1.07,5.7,5.7,0,0,1-4.12,0,4.64,4.64,0,0,1-2.62-2.7,6,6,0,0,1,0-4.13,4.77,4.77,0,0,1,1-1.63,4.7,4.7,0,0,1,1.59-1.07,5.7,5.7,0,0,1,4.12,0,4.66,4.66,0,0,1,1.59,1.07,4.79,4.79,0,0,1,1,1.63A5.71,5.71,0,0,1,72.3,17.33Zm-1.67,0a4.86,4.86,0,0,0-.23-1.56,3.31,3.31,0,0,0-.67-1.18,2.91,2.91,0,0,0-1.06-.74,3.9,3.9,0,0,0-2.79,0,3,3,0,0,0-1.06.74,3.31,3.31,0,0,0-.68,1.18,5.25,5.25,0,0,0,0,3.13,3.27,3.27,0,0,0,.68,1.17,3,3,0,0,0,1.06.73,3.95,3.95,0,0,0,2.79,0,2.9,2.9,0,0,0,1.06-.73,3.28,3.28,0,0,0,.67-1.17A4.88,4.88,0,0,0,70.62,17.33Z"/><path class="cls-3" d="M87.17,12.29,84,22.37H82.55l-2.37-7.24c0-.08-.05-.17-.08-.26s-.05-.19-.07-.3q0,.16-.07.3c0,.09-.05.18-.08.26l-2.39,7.24H76L72.88,12.29h1.37a.6.6,0,0,1,.35.1.5.5,0,0,1,.19.28l1.89,6.46q.06.21.11.46l.1.51q0-.27.11-.51c0-.17.08-.32.13-.45l2.16-6.46a.59.59,0,0,1,.2-.26.54.54,0,0,1,.35-.12h.48a.53.53,0,0,1,.35.11.71.71,0,0,1,.2.27L83,19.13c0,.14.09.28.13.44s.08.32.11.49l.09-.49c0-.16.06-.3.1-.44l1.88-6.46a.49.49,0,0,1,.19-.27.57.57,0,0,1,.35-.11Z"/></g></g></g></svg>