<svg xmlns="http://www.w3.org/2000/svg" viewBox="0 0 112.68 33.38"><defs><style>.cls-1{fill:#d6d6d6;}.cls-2{fill:#a5a5a5;}.cls-3{fill:#636161;}</style></defs><title>none-button-hover</title><g id="Layer_2" data-name="Layer 2"><g id="Layer_1-2" data-name="Layer 1"><g id="none-button"><rect class="cls-1" width="112.68" height="33.38"/><circle class="cls-2" cx="28.69" cy="16.47" r="9.96"/><path class="cls-3" d="M58.16,12.29V22.37h-.83A.71.71,0,0,1,57,22.3a.75.75,0,0,1-.25-.22L51.21,15c0,.14,0,.27,0,.4s0,.26,0,.37v6.63H49.81V12.29h1l.14,0a.39.39,0,0,1,.12.08l.12.14,5.54,7.12q0-.22,0-.43c0-.14,0-.27,0-.39V12.29Z"/><path class="cls-3" d="M70,17.33a5.71,5.71,0,0,1-.36,2.06,4.77,4.77,0,0,1-1,1.63,4.69,4.69,0,0,1-1.59,1.07,5.7,5.7,0,0,1-4.12,0,4.65,4.65,0,0,1-2.62-2.7,6,6,0,0,1,0-4.13,4.78,4.78,0,0,1,1-1.63,4.69,4.69,0,0,1,1.59-1.07,5.7,5.7,0,0,1,4.12,0,4.66,4.66,0,0,1,1.59,1.07,4.8,4.8,0,0,1,1,1.63A5.71,5.71,0,0,1,70,17.33Zm-1.67,0a4.86,4.86,0,0,0-.23-1.56,3.31,3.31,0,0,0-.67-1.18,2.92,2.92,0,0,0-1.06-.74,3.9,3.9,0,0,0-2.79,0,3,3,0,0,0-1.06.74,3.31,3.31,0,0,0-.68,1.18,5.25,5.25,0,0,0,0,3.13,3.27,3.27,0,0,0,.68,1.17,3,3,0,0,0,1.06.73,3.95,3.95,0,0,0,2.79,0,2.91,2.91,0,0,0,1.06-.73,3.28,3.28,0,0,0,.67-1.17A4.88,4.88,0,0,0,68.36,17.33Z"/><path class="cls-3" d="M80.17,12.29V22.37h-.83A.71.71,0,0,1,79,22.3a.75.75,0,0,1-.25-.22L73.22,15c0,.14,0,.27,0,.4s0,.26,0,.37v6.63H71.82V12.29h1l.14,0a.39.39,0,0,1,.12.08l.12.14,5.54,7.12q0-.22,0-.43c0-.14,0-.27,0-.39V12.29Z"/><path class="cls-3" d="M88.86,21v1.32H82.57V12.29h6.29v1.32H84.21v3h3.71v1.28H84.21V21Z"/></g></g></g></svg>