<svg xmlns="http://www.w3.org/2000/svg" viewBox="0 0 112.68 33.38"><defs><style>.cls-1{fill:#fff;}.cls-2{fill:#01847f;opacity:0.72;}.cls-3{fill:#636161;}</style></defs><title>normal-button</title><g id="Layer_2" data-name="Layer 2"><g id="Layer_1-2" data-name="Layer 1"><g id="normal-button"><rect class="cls-1" width="112.68" height="33.38"/><circle class="cls-2" cx="20.91" cy="16.69" r="9.96"/><path class="cls-3" d="M52.56,12V22.05h-.83a.71.71,0,0,1-.32-.07.76.76,0,0,1-.25-.22l-5.54-7.11c0,.14,0,.27,0,.4s0,.26,0,.37v6.63H44.22V12h1l.14,0a.39.39,0,0,1,.12.08l.12.14,5.54,7.12c0-.14,0-.29,0-.43s0-.27,0-.39V12Z"/><path class="cls-3" d="M64.43,17a5.71,5.71,0,0,1-.36,2.06,4.76,4.76,0,0,1-1,1.63,4.69,4.69,0,0,1-1.59,1.07,5.7,5.7,0,0,1-4.12,0,4.64,4.64,0,0,1-2.62-2.7,6,6,0,0,1,0-4.13,4.77,4.77,0,0,1,1-1.63,4.7,4.7,0,0,1,1.59-1.07,5.7,5.7,0,0,1,4.12,0A4.66,4.66,0,0,1,63,13.32a4.79,4.79,0,0,1,1,1.63A5.71,5.71,0,0,1,64.43,17Zm-1.67,0a4.86,4.86,0,0,0-.23-1.56,3.31,3.31,0,0,0-.67-1.18,2.91,2.91,0,0,0-1.06-.74,3.9,3.9,0,0,0-2.79,0,3,3,0,0,0-1.06.74,3.31,3.31,0,0,0-.68,1.18,5.25,5.25,0,0,0,0,3.13,3.27,3.27,0,0,0,.68,1.17,3,3,0,0,0,1.06.73,3.95,3.95,0,0,0,2.79,0,2.9,2.9,0,0,0,1.06-.73,3.28,3.28,0,0,0,.67-1.17A4.88,4.88,0,0,0,62.76,17Z"/><path class="cls-3" d="M73.9,22.05H72.43a.67.67,0,0,1-.63-.34l-2.35-3.4a.77.77,0,0,0-.26-.25.9.9,0,0,0-.42-.08h-.91v4.06H66.23V12h3a6.34,6.34,0,0,1,1.71.2,3.26,3.26,0,0,1,1.18.58,2.28,2.28,0,0,1,.68.9,3.17,3.17,0,0,1,.06,2.15,2.76,2.76,0,0,1-.46.83,2.93,2.93,0,0,1-.73.64,3.71,3.71,0,0,1-1,.43,1.63,1.63,0,0,1,.52.51ZM69.15,16.8a3.17,3.17,0,0,0,1-.14,2,2,0,0,0,.7-.38,1.56,1.56,0,0,0,.42-.58,2,2,0,0,0,.14-.75,1.51,1.51,0,0,0-.55-1.26,2.63,2.63,0,0,0-1.65-.43H67.86V16.8Z"/><path class="cls-3" d="M85.84,12V22.05H84.4V15.14c0-.11,0-.23,0-.37s0-.27,0-.4l-3.24,6a.62.62,0,0,1-.58.37h-.23a.61.61,0,0,1-.58-.37l-3.29-6c0,.14,0,.27,0,.41s0,.26,0,.38v6.91H75.12V12h1.22a1.15,1.15,0,0,1,.34,0,.42.42,0,0,1,.22.23l3.23,5.86q.11.2.2.42c.06.14.12.29.17.44.06-.15.12-.3.18-.44s.13-.29.2-.42l3.19-5.85a.42.42,0,0,1,.22-.23,1.15,1.15,0,0,1,.34,0Z"/><path class="cls-3" d="M96.67,22.05H95.4a.53.53,0,0,1-.35-.11.69.69,0,0,1-.2-.27L94,19.45H89.67l-.84,2.23a.67.67,0,0,1-.2.26.52.52,0,0,1-.35.12H87L91,12h1.66Zm-3.1-3.78-1.39-3.68a10.24,10.24,0,0,1-.34-1.08q-.08.33-.17.61l-.17.49-1.39,3.68Z"/><path class="cls-3" d="M103.67,20.68v1.37H97.84V12h1.64v8.71Z"/></g></g></g></svg>